<?xml version="1.0" standalone="no"?>
<!DOCTYPE svg PUBLIC "-//W3C//DTD SVG 20010904//EN"
 "http://www.w3.org/TR/2001/REC-SVG-20010904/DTD/svg10.dtd">
<svg version="1.0" xmlns="http://www.w3.org/2000/svg"
 width="844.000000pt" height="844.000000pt" viewBox="0 0 844.000000 844.000000"
 preserveAspectRatio="xMidYMid meet">
<metadata>
Created by potrace 1.11, written by Peter Selinger 2001-2013
</metadata>
<g transform="translate(0.000000,844.000000) scale(0.100000,-0.100000)"
fill="#000000" stroke="none">
<path d="M160 4220 l0 -4220 4065 0 4065 0 0 4220 0 4220 -4065 0 -4065 0 0
-4220z m7029 3800 c26 -13 43 -30 50 -51 15 -42 15 -4080 1 -4283 -20 -269
-89 -526 -210 -781 -37 -78 -70 -136 -175 -311 -85 -141 -413 -544 -438 -536
-5 1 -6 -1 -3 -6 3 -5 -54 -66 -127 -137 -73 -70 -155 -150 -183 -178 -34 -33
-56 -47 -64 -42 -8 5 -11 4 -7 -2 4 -6 -21 -34 -56 -64 -34 -29 -64 -56 -67
-59 -19 -20 -157 -134 -274 -226 -77 -60 -162 -127 -190 -149 -158 -125 -317
-236 -327 -229 -7 4 -9 3 -5 -4 3 -6 -12 -23 -34 -39 -22 -15 -63 -45 -91 -65
-28 -21 -56 -35 -62 -31 -5 3 -7 1 -4 -4 4 -6 -10 -22 -31 -36 -20 -14 -65
-45 -98 -69 -193 -136 -394 -278 -438 -308 -28 -20 -97 -68 -154 -108 -58 -42
-117 -76 -135 -78 -40 -6 13 -41 -607 399 -30 21 -79 55 -107 74 -29 20 -53
40 -53 44 0 5 -6 9 -12 9 -7 0 -48 26 -91 58 -43 31 -109 79 -147 106 -38 27
-66 54 -63 59 3 6 1 7 -5 3 -16 -10 -498 357 -741 564 -241 204 -565 521 -702
685 -136 163 -282 366 -282 391 0 7 -3 11 -7 9 -3 -2 -29 35 -57 83 -150 255
-239 492 -295 782 l-22 115 -3 2167 c-4 2395 -8 2224 59 2253 28 12 468 14
3126 15 3055 0 3093 0 3131 -20z"/>
<path d="M1070 5778 c0 -1349 4 -2094 10 -2153 29 -251 107 -496 235 -734 62
-116 158 -266 221 -348 24 -31 41 -60 37 -66 -3 -6 -1 -7 4 -4 6 4 19 -5 28
-20 10 -14 51 -64 92 -110 41 -46 76 -92 78 -101 1 -9 7 -16 12 -15 13 3 229
-218 225 -230 -1 -5 1 -6 6 -3 12 7 104 -88 95 -98 -4 -4 -1 -4 8 -1 9 3 25
-5 40 -22 30 -34 91 -87 269 -234 199 -164 201 -165 255 -206 28 -21 57 -43
65 -50 72 -60 516 -382 860 -623 113 -80 210 -148 215 -153 28 -23 227 -157
233 -157 9 0 71 41 172 114 46 33 89 59 96 59 7 0 12 4 11 8 -3 12 313 230
324 223 5 -3 8 0 7 6 -2 7 40 42 93 79 52 36 153 108 223 159 70 52 132 90
138 86 6 -4 8 -3 5 4 -8 12 72 74 85 66 5 -3 7 -1 6 4 -2 5 56 54 127 109 109
83 249 194 364 290 14 11 30 19 35 16 5 -4 6 -2 3 4 -6 9 49 58 65 58 3 0 10
4 15 9 5 5 2 6 -7 1 -19 -10 -14 -5 85 81 44 38 84 75 88 82 5 7 13 10 18 6 5
-3 8 -1 7 4 -2 6 1 12 5 13 8 4 256 255 359 364 20 22 61 69 89 105 28 36 55
64 61 62 5 -1 7 1 4 6 -7 12 39 73 49 64 5 -4 5 -2 2 4 -3 6 2 20 11 30 10 10
26 33 37 51 10 18 23 29 28 26 6 -3 7 -2 4 4 -6 10 26 66 35 58 2 -3 5 1 5 8
0 7 21 49 48 92 154 254 255 558 285 854 6 67 10 822 10 2142 l0 2039 -2990 0
-2990 0 0 -2062z m5010 972 l0 -390 -80 0 -80 0 0 78 c-1 163 -31 304 -77 364
-52 67 -4 63 -741 68 l-672 5 0 -2076 c0 -1834 2 -2078 15 -2089 8 -7 15 -18
15 -25 0 -6 15 -20 34 -30 19 -11 32 -23 29 -28 -3 -6 -2 -7 3 -4 5 3 41 -3
79 -14 41 -11 124 -22 200 -27 l130 -7 3 -77 3 -78 -881 0 -880 0 0 80 0 80
78 0 c96 1 210 15 282 36 40 12 67 29 102 64 l48 47 0 2072 0 2071 -666 0
c-658 0 -667 0 -700 -21 -75 -46 -113 -157 -121 -351 l-6 -138 -83 0 -84 0 0
390 0 390 2025 0 2025 0 0 -390z"/>
</g>
</svg>
